{
  "asset": {
    "generator": "Khronos glTF Blender I/O v4.0.44",
    "version": "2.0"
  },
  "scene": 0,
  "scenes": [
    {
      "name": "Scene",
      "nodes": [
        0,
        1,
        2,
        3,
        4,
        5,
        6,
        7,
        8,
        9,
        10
      ]
    }
  ],
  "nodes": [
    {
      "mesh": 0,
      "name": "Plane",
      "translation": [
        0.00246429443359375,
        0.021867752075195312,
        -0.032532691955566406
      ]
    },
    {
      "mesh": 1,
      "name": "Plane.001",
      "translation": [
        0.00246429443359375,
        0.021867752075195312,
        -0.032532691955566406
      ]
    },
    {
      "mesh": 2,
      "name": "Plane.002",
      "translation": [
        0.00246429443359375,
        0.021867752075195312,
        -0.032532691955566406
      ]
    },
    {
      "mesh": 3,
      "name": "Plane.004",
      "scale": [
        2.9663312435150146,
        1,
        2.391751766204834
      ],
      "translation": [
        -0.7733380198478699,
        1.0640015602111816,
        -0.6151297092437744
      ]
    },
    {
      "mesh": 4,
      "name": "Plane.005",
      "scale": [
        2.9663312435150146,
        1,
        2.391751766204834
      ],
      "translation": [
        -0.7733380198478699,
        1.0640015602111816,
        -0.6151297092437744
      ]
    },
    {
      "mesh": 5,
      "name": "Plane.006",
      "scale": [
        2.9663312435150146,
        1,
        2.391751766204834
      ],
      "translation": [
        -0.7733380198478699,
        1.0640015602111816,
        -0.6151297092437744
      ]
    },
    {
      "mesh": 6,
      "name": "Plane.007",
      "scale": [
        2.9663312435150146,
        1,
        2.391751766204834
      ],
      "translation": [
        -0.7733380198478699,
        1.0640015602111816,
        -0.6151297092437744
      ]
    },
    {
      "mesh": 7,
      "name": "Plane.008",
      "scale": [
        2.9663312435150146,
        1,
        2.391751766204834
      ],
      "translation": [
        -0.7733380198478699,
        1.0640015602111816,
        -0.6151297092437744
      ]
    },
    {
      "mesh": 8,
      "name": "Plane.009",
      "scale": [
        0.9604524970054626,
        0.9604524970054626,
        0.9604524970054626
      ],
      "translation": [
        0.00246429443359375,
        0.021867752075195312,
        -0.032532691955566406
      ]
    },
    {
      "mesh": 9,
      "name": "Plane.003",
      "rotation": [
        -0.00008403253741562366,
        -0.18489500880241394,
        0.009740915149450302,
        0.9827100038528442
      ],
      "scale": [
        2.9663310050964355,
        1,
        2.391751766204834
      ],
      "translation": [
        -0.8077399730682373,
        0.824510931968689,
        -0.23670396208763123
      ]
    },
    {
      "mesh": 10,
      "name": "Plane.010",
      "rotation": [
        0,
        -0.185761496424675,
        0,
        0.9825949668884277
      ],
      "scale": [
        2.9663314819335938,
        1,
        2.391751766204834
      ],
      "translation": [
        -0.670682430267334,
        0.9355740547180176,
        -0.21971005201339722
      ]
    }
  ],
  "meshes": [
    {
      "name": "Plane",
      "primitives": [
        {
          "attributes": {
            "POSITION": 0,
            "NORMAL": 1,
            "TEXCOORD_0": 2
          },
          "indices": 3
        }
      ]
    },
    {
      "name": "Plane.001",
      "primitives": [
        {
          "attributes": {
            "POSITION": 4,
            "NORMAL": 5,
            "TEXCOORD_0": 6
          },
          "indices": 7
        }
      ]
    },
    {
      "name": "Plane.002",
      "primitives": [
        {
          "attributes": {
            "POSITION": 8,
            "NORMAL": 9,
            "TEXCOORD_0": 10
          },
          "indices": 11
        }
      ]
    },
    {
      "name": "Plane.005",
      "primitives": [
        {
          "attributes": {
            "POSITION": 12,
            "NORMAL": 13,
            "TEXCOORD_0": 14
          },
          "indices": 15
        }
      ]
    },
    {
      "name": "Plane.006",
      "primitives": [
        {
          "attributes": {
            "POSITION": 16,
            "NORMAL": 17,
            "TEXCOORD_0": 18
          },
          "indices": 19
        }
      ]
    },
    {
      "name": "Plane.007",
      "primitives": [
        {
          "attributes": {
            "POSITION": 20,
            "NORMAL": 21,
            "TEXCOORD_0": 22
          },
          "indices": 23
        }
      ]
    },
    {
      "name": "Plane.008",
      "primitives": [
        {
          "attributes": {
            "POSITION": 24,
            "NORMAL": 25,
            "TEXCOORD_0": 26
          },
          "indices": 27
        }
      ]
    },
    {
      "name": "Plane.009",
      "primitives": [
        {
          "attributes": {
            "POSITION": 28,
            "NORMAL": 29,
            "TEXCOORD_0": 30
          },
          "indices": 31
        }
      ]
    },
    {
      "name": "Plane.009",
      "primitives": [
        {
          "attributes": {
            "POSITION": 32,
            "NORMAL": 33,
            "TEXCOORD_0": 34
          },
          "indices": 35
        }
      ]
    },
    {
      "name": "Plane.013",
      "primitives": [
        {
          "attributes": {
            "POSITION": 36,
            "NORMAL": 37,
            "TEXCOORD_0": 38
          },
          "indices": 39
        }
      ]
    },
    {
      "name": "Plane.014",
      "primitives": [
        {
          "attributes": {
            "POSITION": 40,
            "NORMAL": 41,
            "TEXCOORD_0": 42
          },
          "indices": 43
        }
      ]
    }
  ],
  "accessors": [
    {
      "bufferView": 0,
      "componentType": 5126,
      "count": 28,
      "max": [
        4,
        0.7018329501152039,
        4
      ],
      "min": [
        -4,
        0,
        -4
      ],
      "type": "VEC3"
    },
    {
      "bufferView": 1,
      "componentType": 5126,
      "count": 28,
      "type": "VEC3"
    },
    {
      "bufferView": 2,
      "componentType": 5126,
      "count": 28,
      "type": "VEC2"
    },
    {
      "bufferView": 3,
      "componentType": 5123,
      "count": 42,
      "type": "SCALAR"
    },
    {
      "bufferView": 4,
      "componentType": 5126,
      "count": 48,
      "max": [
        3.9786581993103027,
        1.0422358512878418,
        2.1520376205444336
      ],
      "min": [
        -4.021341800689697,
        0.7421522736549377,
        -4.001383304595947
      ],
      "type": "VEC3"
    },
    {
      "bufferView": 5,
      "componentType": 5126,
      "count": 48,
      "type": "VEC3"
    },
    {
      "bufferView": 6,
      "componentType": 5126,
      "count": 48,
      "type": "VEC2"
    },
    {
      "bufferView": 7,
      "componentType": 5123,
      "count": 156,
      "type": "SCALAR"
    },
    {
      "bufferView": 8,
      "componentType": 5126,
      "count": 32,
      "max": [
        3.9786581993103027,
        0.9174820184707642,
        3.9986166954040527
      ],
      "min": [
        -4.021341800689697,
        0.7421522736549377,
        2.1520376205444336
      ],
      "type": "VEC3"
    },
    {
      "bufferView": 9,
      "componentType": 5126,
      "count": 32,
      "type": "VEC3"
    },
    {
      "bufferView": 10,
      "componentType": 5126,
      "count": 32,
      "type": "VEC2"
    },
    {
      "bufferView": 11,
      "componentType": 5123,
      "count": 60,
      "type": "SCALAR"
    },
    {
      "bufferView": 12,
      "componentType": 5126,
      "count": 441,
      "max": [
        1.3096070289611816,
        3.248854875564575,
        1.0343939065933228
      ],
      "min": [
        -0.968393087387085,
        0.05628052353858948,
        -1.2469066381454468
      ],
      "type": "VEC3"
    },
    {
      "bufferView": 13,
      "componentType": 5126,
      "count": 441,
      "type": "VEC3"
    },
    {
      "bufferView": 14,
      "componentType": 5126,
      "count": 441,
      "type": "VEC2"
    },
    {
      "bufferView": 15,
      "componentType": 5123,
      "count": 966,
      "type": "SCALAR"
    },
    {
      "bufferView": 16,
      "componentType": 5126,
      "count": 114,
      "max": [
        1.431225299835205,
        5.237412452697754,
        1.198187232017517
      ],
      "min": [
        -1.1308512687683105,
        3.234827756881714,
        -1.3687012195587158
      ],
      "type": "VEC3"
    },
    {
      "bufferView": 17,
      "componentType": 5126,
      "count": 114,
      "type": "VEC3"
    },
    {
      "bufferView": 18,
      "componentType": 5126,
      "count": 114,
      "type": "VEC2"
    },
    {
      "bufferView": 19,
      "componentType": 5123,
      "count": 216,
      "type": "SCALAR"
    },
    {
      "bufferView": 20,
      "componentType": 5126,
      "count": 4,
      "max": [
        1.431225299835205,
        3.5256214141845703,
        1.1561884880065918
      ],
      "min": [
        -1.0900113582611084,
        3.5256214141845703,
        -1.3687012195587158
      ],
      "type": "VEC3"
    },
    {
      "bufferView": 21,
      "componentType": 5126,
      "count": 4,
      "type": "VEC3"
    },
    {
      "bufferView": 22,
      "componentType": 5126,
      "count": 4,
      "type": "VEC2"
    },
    {
      "bufferView": 23,
      "componentType": 5123,
      "count": 6,
      "type": "SCALAR"
    },
    {
      "bufferView": 24,
      "componentType": 5126,
      "count": 8,
      "max": [
        1.2469310760498047,
        2.4951658248901367,
        0.866705060005188
      ],
      "min": [
        -0.9057170748710632,
        0.7577866315841675,
        0.8667049407958984
      ],
      "type": "VEC3"
    },
    {
      "bufferView": 25,
      "componentType": 5126,
      "count": 8,
      "type": "VEC3"
    },
    {
      "bufferView": 26,
      "componentType": 5126,
      "count": 8,
      "type": "VEC2"
    },
    {
      "bufferView": 27,
      "componentType": 5123,
      "count": 12,
      "type": "SCALAR"
    },
    {
      "bufferView": 28,
      "componentType": 5126,
      "count": 6,
      "max": [
        0.4247351884841919,
        2.5578415393829346,
        0.7612247467041016
      ],
      "min": [
        -0.10927216708660126,
        0.05628061294555664,
        0.7612247467041016
      ],
      "type": "VEC3"
    },
    {
      "bufferView": 29,
      "componentType": 5126,
      "count": 6,
      "type": "VEC3"
    },
    {
      "bufferView": 30,
      "componentType": 5126,
      "count": 6,
      "type": "VEC2"
    },
    {
      "bufferView": 31,
      "componentType": 5123,
      "count": 12,
      "type": "SCALAR"
    },
    {
      "bufferView": 32,
      "componentType": 5126,
      "count": 5136,
      "max": [
        4.092076778411865,
        2.6133105754852295,
        -1.0056527853012085
      ],
      "min": [
        -3.812195301055908,
        1.0422358512878418,
        -4.11480188369751
      ],
      "type": "VEC3"
    },
    {
      "bufferView": 33,
      "componentType": 5126,
      "count": 5136,
      "type": "VEC3"
    },
    {
      "bufferView": 34,
      "componentType": 5126,
      "count": 5136,
      "type": "VEC2"
    },
    {
      "bufferView": 35,
      "componentType": 5123,
      "count": 9036,
      "type": "SCALAR"
    },
    {
      "bufferView": 36,
      "componentType": 5126,
      "count": 18,
      "max": [
        1.1155338287353516,
        5.2002644538879395,
        0.25605061650276184
      ],
      "min": [
        0.6288427114486694,
        4.313864707946777,
        -0.16751405596733093
      ],
      "type": "VEC3"
    },
    {
      "bufferView": 37,
      "componentType": 5126,
      "count": 18,
      "type": "VEC3"
    },
    {
      "bufferView": 38,
      "componentType": 5126,
      "count": 18,
      "type": "VEC2"
    },
    {
      "bufferView": 39,
      "componentType": 5123,
      "count": 48,
      "type": "SCALAR"
    },
    {
      "bufferView": 40,
      "componentType": 5126,
      "count": 109,
      "max": [
        0.7957767248153687,
        5.237412452697754,
        0.6343636512756348
      ],
      "min": [
        -0.42435798048973083,
        3.5703020095825195,
        -0.8788884878158569
      ],
      "type": "VEC3"
    },
    {
      "bufferView": 41,
      "componentType": 5126,
      "count": 109,
      "type": "VEC3"
    },
    {
      "bufferView": 42,
      "componentType": 5126,
      "count": 109,
      "type": "VEC2"
    },
    {
      "bufferView": 43,
      "componentType": 5123,
      "count": 492,
      "type": "SCALAR"
    }
  ],
  "bufferViews": [
    {
      "buffer": 0,
      "byteLength": 336,
      "byteOffset": 0,
      "target": 34962
    },
    {
      "buffer": 0,
      "byteLength": 336,
      "byteOffset": 336,
      "target": 34962
    },
    {
      "buffer": 0,
      "byteLength": 224,
      "byteOffset": 672,
      "target": 34962
    },
    {
      "buffer": 0,
      "byteLength": 84,
      "byteOffset": 896,
      "target": 34963
    },
    {
      "buffer": 0,
      "byteLength": 576,
      "byteOffset": 980,
      "target": 34962
    },
    {
      "buffer": 0,
      "byteLength": 576,
      "byteOffset": 1556,
      "target": 34962
    },
    {
      "buffer": 0,
      "byteLength": 384,
      "byteOffset": 2132,
      "target": 34962
    },
    {
      "buffer": 0,
      "byteLength": 312,
      "byteOffset": 2516,
      "target": 34963
    },
    {
      "buffer": 0,
      "byteLength": 384,
      "byteOffset": 2828,
      "target": 34962
    },
    {
      "buffer": 0,
      "byteLength": 384,
      "byteOffset": 3212,
      "target": 34962
    },
    {
      "buffer": 0,
      "byteLength": 256,
      "byteOffset": 3596,
      "target": 34962
    },
    {
      "buffer": 0,
      "byteLength": 120,
      "byteOffset": 3852,
      "target": 34963
    },
    {
      "buffer": 0,
      "byteLength": 5292,
      "byteOffset": 3972,
      "target": 34962
    },
    {
      "buffer": 0,
      "byteLength": 5292,
      "byteOffset": 9264,
      "target": 34962
    },
    {
      "buffer": 0,
      "byteLength": 3528,
      "byteOffset": 14556,
      "target": 34962
    },
    {
      "buffer": 0,
      "byteLength": 1932,
      "byteOffset": 18084,
      "target": 34963
    },
    {
      "buffer": 0,
      "byteLength": 1368,
      "byteOffset": 20016,
      "target": 34962
    },
    {
      "buffer": 0,
      "byteLength": 1368,
      "byteOffset": 21384,
      "target": 34962
    },
    {
      "buffer": 0,
      "byteLength": 912,
      "byteOffset": 22752,
      "target": 34962
    },
    {
      "buffer": 0,
      "byteLength": 432,
      "byteOffset": 23664,
      "target": 34963
    },
    {
      "buffer": 0,
      "byteLength": 48,
      "byteOffset": 24096,
      "target": 34962
    },
    {
      "buffer": 0,
      "byteLength": 48,
      "byteOffset": 24144,
      "target": 34962
    },
    {
      "buffer": 0,
      "byteLength": 32,
      "byteOffset": 24192,
      "target": 34962
    },
    {
      "buffer": 0,
      "byteLength": 12,
      "byteOffset": 24224,
      "target": 34963
    },
    {
      "buffer": 0,
      "byteLength": 96,
      "byteOffset": 24236,
      "target": 34962
    },
    {
      "buffer": 0,
      "byteLength": 96,
      "byteOffset": 24332,
      "target": 34962
    },
    {
      "buffer": 0,
      "byteLength": 64,
      "byteOffset": 24428,
      "target": 34962
    },
    {
      "buffer": 0,
      "byteLength": 24,
      "byteOffset": 24492,
      "target": 34963
    },
    {
      "buffer": 0,
      "byteLength": 72,
      "byteOffset": 24516,
      "target": 34962
    },
    {
      "buffer": 0,
      "byteLength": 72,
      "byteOffset": 24588,
      "target": 34962
    },
    {
      "buffer": 0,
      "byteLength": 48,
      "byteOffset": 24660,
      "target": 34962
    },
    {
      "buffer": 0,
      "byteLength": 24,
      "byteOffset": 24708,
      "target": 34963
    },
    {
      "buffer": 0,
      "byteLength": 61632,
      "byteOffset": 24732,
      "target": 34962
    },
    {
      "buffer": 0,
      "byteLength": 61632,
      "byteOffset": 86364,
      "target": 34962
    },
    {
      "buffer": 0,
      "byteLength": 41088,
      "byteOffset": 147996,
      "target": 34962
    },
    {
      "buffer": 0,
      "byteLength": 18072,
      "byteOffset": 189084,
      "target": 34963
    },
    {
      "buffer": 0,
      "byteLength": 216,
      "byteOffset": 207156,
      "target": 34962
    },
    {
      "buffer": 0,
      "byteLength": 216,
      "byteOffset": 207372,
      "target": 34962
    },
    {
      "buffer": 0,
      "byteLength": 144,
      "byteOffset": 207588,
      "target": 34962
    },
    {
      "buffer": 0,
      "byteLength": 96,
      "byteOffset": 207732,
      "target": 34963
    },
    {
      "buffer": 0,
      "byteLength": 1308,
      "byteOffset": 207828,
      "target": 34962
    },
    {
      "buffer": 0,
      "byteLength": 1308,
      "byteOffset": 209136,
      "target": 34962
    },
    {
      "buffer": 0,
      "byteLength": 872,
      "byteOffset": 210444,
      "target": 34962
    },
    {
      "buffer": 0,
      "byteLength": 984,
      "byteOffset": 211316,
      "target": 34963
    }
  ],
  "buffers": [
    {
      "uri": "1_data.bin",
      "byteLength": 212300
    }
  ]
}